# xmcd
# Track frame offsets:
# 150
# 11836
# 25158
# 38233
# 50436
# 61218
# 72508
# 86027
# 96831
# 109741
# 122075
# 134245
# 145169
# 156698
# 168023
# 178686
# 188783
# 201644
# 213232
# 225590
# 236036
# 259520
# 270438
# 280893
# 293468
#
# Disc length: 4075 seconds
# Revision: 1
# Processed by: cddbd v1.5.2PL0 Copyright (c) Steve Scherf et al.
# Submitted via: VisiTrax 2.11.3.279 - For more info visit www.synapsa.com
#
DISCID=770fe919
DTITLE=Various Artist - Greetings From Detroit - The Sound Of Early Motown - CD 3
DYEAR=1900
DGENRE=Motown
TTITLE0=Pete Hartfield - Love Me
TTITLE1=The Miracles - Everybody's Gotta Pay Some Dues
TTITLE2=Joel Sebastien - Angel in Blue
TTITLE3=Mary Wells - Strange Love
TTITLE4=Freddie Gorman - The Day Will Come
TTITLE5=Popcorn and The Mohawks - Have I The Right?
TTITLE6=The Satintones - Zing Went the Strings of My Heart
TTITLE7=Eddie Holland - Jamie
TTITLE8=Mable John - Actions Speak Louder Than Words
TTITLE9=The Temptations - Check Yourself
TTITLE10=Bob Kayli - Small Sad Sam
TTITLE11=Don McKenzie - Whose Heart (Are You Gonna Break Now)?
TTITLE12=Mickey Woods - Please Mr. Kennedy
TTITLE13=The Marvelettes - Twistin' Postman
TTITLE14=The Miracles - What's So Good About Goodbye?
TTITLE15=The Twistin' Kings - Congo (Part 1)
TTITLE16=The Supremes - Who's Lovin' You?
TTITLE17=Marvin Gaye - Mr. Sandman
TTITLE18=The Miracles - The Feeling Is So Fine
TTITLE19=Barrett Strong - Yes, No, Maybe So
TTITLE20=Marvin Gaye - (I'm Afraid) The Masquerade is Over
TTITLE21=Richard Wylie and His Band - Money (That's What I Want)
TTITLE22=Reverand Columbus Mann - They Shall Be Mine
TTITLE23=The Valadiers - Greetings (This is Uncle Sam)
TTITLE24=The Twistin' Kings - Xmas Twist
EXTD=
EXTT0=
EXTT1=
EXTT2=
EXTT3=
EXTT4=
EXTT5=
EXTT6=
EXTT7=
EXTT8=
EXTT9=
EXTT10=
EXTT11=
EXTT12=
EXTT13=
EXTT14=
EXTT15=
EXTT16=
EXTT17=
EXTT18=
EXTT19=
EXTT20=
EXTT21=
EXTT22=
EXTT23=
EXTT24=
PLAYORDER=
